<svg width="100" height="100" viewBox="0 0 100 100" fill="none" xmlns="http://www.w3.org/2000/svg">
<path d="M76.2329 19.3208C72.8458 15.7906 68.78 12.9817 64.2797 11.0628C59.7794 9.14395 54.9377 8.1548 50.0454 8.1548C45.1531 8.1548 40.3113 9.14395 35.8111 11.0628C31.3108 12.9817 27.2449 15.7906 23.8579 19.3208C17.4829 27.6541 15.5246 40.1541 19.1079 52.9875C22.7746 66.8625 32.5662 76.9041 40.4412 84.9458L44.2746 89.1125C45.0191 89.9025 45.9108 90.5394 46.8995 90.9875C47.89 91.4274 48.9617 91.6547 50.0454 91.6547C51.1291 91.6547 52.2008 91.4274 53.1912 90.9875C54.1616 90.5471 55.0386 89.9248 55.7745 89.1541L59.6495 84.9875C67.5245 76.9458 77.3162 66.9041 80.9829 53.0291C84.3579 40.1541 82.6079 27.6541 76.2329 19.3208ZM50.0245 53.6958C46.914 53.6965 43.8856 52.6969 41.3867 50.8447C38.8877 48.9924 37.0507 46.3856 36.1468 43.4092C35.2429 40.4329 35.3201 37.2448 36.367 34.3157C37.4139 31.3866 39.375 28.8717 41.9607 27.1426C44.5464 25.4135 47.6196 24.5616 50.7264 24.713C53.8333 24.8643 56.8092 26.0107 59.2146 27.9829C61.62 29.9551 63.3275 32.6485 64.0848 35.6655C64.8421 38.6825 64.6092 41.863 63.4204 44.7375C62.3222 47.3837 60.4626 49.6441 58.0776 51.2317C55.6926 52.8192 52.8896 53.6624 50.0245 53.6541V53.6958Z" fill="#17171C"/>
<path d="M12.5201 20.52C12.7601 22.48 13.2401 24.2 13.9601 25.56C14.9601 27.56 17.28 29 19 29L18.0801 32.04C15.0801 32.04 12.5201 30.28 10.8801 27.16C9.88007 25.2 9.00007 23.5 9.00007 20L12.5201 20.52Z" fill="#EEEEEE"/>
<path d="M12.5201 20.52C12.7601 18.56 13.3416 15.8001 14.0616 14.4401C15.0616 12.4401 17.3816 11 19.1016 11L18.1816 7.96005C15.1816 7.96005 12.6216 9.72005 10.9816 12.8401C9.98164 14.8001 9 15.5 9.00007 20L12.5201 20.52Z" fill="#EEEEEE"/>
<path d="M31 38.56C33 40.64 34.12 43.44 34.12 46.4C34.12 52.08 29.92 57.8 21.92 57.8C18.44 57.8 15.44 56.6 13.08 54.2C12 53.12 11.16 51.92 10.44 50.6V63.48H7C7 63.48 7 35.68 7 35.64L10.44 35.68C10.44 35.68 10.32 38.6 11 41.56C11.24 41.04 11.56 40.52 11.88 40.04C14.04 36.84 17.68 35 21.92 35C25.64 35 28.8 36.24 31 38.56ZM28.52 51.88C29.92 50.44 30.64 48.52 30.64 46.4C30.64 44.32 29.92 42.4 28.52 40.96C26.96 39.32 24.68 38.48 21.92 38.48C18.8 38.48 16.24 39.72 14.72 41.96C11.76 46.36 14.16 50.36 15.52 51.76C17.28 53.52 19.36 54.36 21.92 54.36C24.68 54.36 26.96 53.52 28.52 51.88Z" fill="#EEEEEE"/>
<path d="M59.3247 35.68H62.7647V63.48H59.1247C59.1247 63.48 58.2447 57.64 52.0047 53.84C50.1247 52.72 47.9647 51.84 45.6047 51.28C45.4447 54.08 44.8847 56.72 43.9647 58.8C42.6047 61.8 40.5247 63.48 38.1247 63.48H36.4047V47C36.4047 47 40.6447 47.04 42.0047 47.2C41.7647 45.24 41.2847 43.52 40.5647 42.16C39.5647 40.16 37.2239 39.16 35.5039 39.16C35.5039 39.16 35.5039 37.8554 35.5039 37.0195C35.5039 35.5195 36.0039 35.5195 36.0039 35.5195C39.0039 35.5195 42.0047 37.44 43.6447 40.56C44.6447 42.52 45.3247 45 45.5247 47.72C48.6047 48.4 51.3647 49.44 53.7647 50.88C56.0047 52.24 57.8847 53.92 59.3247 55.8V35.68ZM39.8447 59.04C41.1247 57.52 42.0447 54.32 42.1647 50.68C41.4047 50.6 40.6447 50.52 39.8447 50.48V59.04Z" fill="#EEEEEE"/>
<path d="M91.6847 35.6C91.6847 35.6 98.0447 54.12 85.5647 61.68C80.5647 64.68 75.1247 64.16 74.4847 64.12C70.7247 63.8 67.2847 62.48 65.0447 60.44L67.3247 57.88C68.0847 58.56 69.0047 59.12 70.0447 59.56V39.04H66.1647V35.6H91.6847ZM89.0847 51.72C90.1647 48.28 90.1247 44 88.9647 39.04H73.5247V60.52C76.8447 61.04 80.6447 60.6 83.7647 58.72C86.3647 57.16 88.1647 54.8 89.0847 51.72Z" fill="#EEEEEE"/>
</svg>
